<svg version="1" xmlns="http://www.w3.org/2000/svg" width="600" height="600" viewBox="0 0 450.000000 450.000000"><path d="M178.9 35.7c-1.3 1.6-1.2 1.7.4.4.9-.7 1.7-1.5 1.7-1.7 0-.8-.8-.3-2.1 1.3zM258.6 36.8c-.3.5.1.9.9.9s1.2-.4.9-.9c-.3-.4-.7-.8-.9-.8-.2 0-.6.4-.9.8zM178.9 41.2c-.1 1.3-.2 3.6-.3 5.3 0 1.6-.5 3.3-1.1 3.7-.6.5-.5.8.3.8s1 .5.5 1.2c-1.3 2.2-1.3 38.9 0 38.1.8-.4.8-.1 0 .9-.7.8-1 1.8-.7 2.1.3.3-.1 2.7-1 5.4-2.7 8.5-4.7 21.9-4.8 32.5 0 9.5.7 18.3 1.8 20 .3.4-.8 1.4-2.4 2.2-1.6.8-4.1 3.1-5.6 5-3.3 4.4-4.6 4.5-4.6.6 0-2.3-.5-3-1.9-3-3.2 0-6.8 3.7-9.7 10-1.5 3.3-3.1 6-3.5 6-.3 0-.9-1.4-1.3-3-.3-1.7-1-3-1.5-3-2.2 0-5.4 9.6-6.6 19.9-.6 5.3-1.1 6.1-3.5 6.1-2.5 0-4 7.3-4 18.8.1 13 .6 18.3 2.3 22.4.9 2.2 1.3 5.2 1 7.6-.3 2.2.2 6.3 1.1 9.5 1.9 6.6 1.9 6.7.4 6.7-.7 0-2.9-2.2-4.8-5-3.3-4.6-4.5-5.4-7.8-5.3-.7.1-1.5-1-1.8-2.3-.7-2.8-3-2.6-7.7.7l-2.7 2-.9-2.3c-2.8-7.4-4-17-3.8-29.9.2-13.6-.4-15.9-1.8-6.6-.3 2.7-.9 5.9-1.1 7-.7 3.2-.7 20.4 0 26.2.6 4.8.5 5.1-2.4 6.7-1.6.9-4.4 3.8-6.2 6.3-1.8 2.5-3.4 4.1-3.6 3.6-.6-1.8-2.7-1.3-4.9 1.1-3.6 4-6.5 11-7 17-.4 3.3-1 5.5-1.5 5.2-.6-.4-.3.4.5 1.7.8 1.4 1.5 5.3 1.6 8.9.2 3.6 1.1 9 2.1 12s1.6 5.8 1.3 6.2c-.2.5.1.7.7.6.6-.2 1.8.6 2.6 1.8 1.3 1.8 1.2 2.3-.4 4.2-1.5 1.7-2.1 1.9-3.1.9-1-.9-1.1-.8-.6.5.4.9-.1 2.8-1 4.2-1 1.4-1.4 2.6-1 2.6.4 0 .2.6-.4 1.3-.6.8-.7 1.8-.3 2.2.4.5.1.5-.5.1-.7-.4-1.3-.2-1.3.4 0 .6-.6.8-1.3.5-.6-.4-.3.1.7.9 1.1.9 1.5 1.6 1 1.6s-.9 2.4-.8 5.2c.1 2.9.3 5.3.4 5.3.1 0 .3.8.5 1.7.2 1-.1 1.8-.7 1.8s-.8-.7-.4-1.5c.3-.8.1-1.5-.3-1.5-.5 0-1.2.7-1.5 1.6-.8 2-.8 2.4.2 2.3 2.1-.4 4.3.2 3.8 1-.3.4.3 1.6 1.4 2.6 1.6 1.4 1.7 2.1.8 3.2-.6.8-.7 1.3-.2 1.1.5-.2 2 .7 3.3 1.9 2.1 2 2.2 2.4 1 4-1.2 1.6-1.2 1.7.1.6 1.2-.9 2-.8 4 .7 1.3 1 3 1.6 3.7 1.3.8-.3 2.3.3 3.5 1.3 1.2 1.1 1.8 1.3 1.4.7-.5-.9-.2-1.1.8-.7.9.3 1.4.9 1.1 1.3-.2.4.2.8 1 .8s1.2-.4.9-.9c-.3-.4.2-.8 1.1-.8.9 0 1.4.4 1.1.8-.2.4.4.8 1.4.8 1 0 1.6-.4 1.4-.8-.5-.7.7-.9 7.4-1.2.9-.1 2.1-.7 2.5-1.4.5-.7 1.3-1 1.8-.7.5.4.6 1.1.3 1.7-.4.7-.2.8.4.4.6-.4.9-1.2.6-1.9-.5-1.4 6.2-7 7.6-6.2.5.3.7-.4.5-1.5-.3-1.7.1-1.9 2.7-1.6 1.6.1 3.3.7 3.6 1.3.4.6 1.5.9 2.4.7 1.8-.2 3.1 1 3.4 3.3.4 2.7 3.7 11.9 4.6 12.8.5.5 2.1 1 3.5 1 2.3 0 2.7.5 3 3.4.4 3.3 6.1 15.3 7.6 15.9.4.2 2.5 2.9 4.6 6.1 4.1 6 11.5 13.2 20 19.3 4.5 3.3 5.9 3.8 13.4 4.4 7.3.6 8.7.4 10.5-1.2 1.2-1 2.2-2.5 2.2-3.2 0-1.2.4-1.2 2.3 0 4.2 2.8 9.2 2.9 14.6.3 2.7-1.4 5.4-3.2 6-4.2.9-1.7 1.2-1.6 3.8.9 1.6 1.6 3.4 2.8 4.1 2.8.6 0 1.6.9 2.2 2 1.2 2.2 4 2.6 5.7.9.6-.6 2.7-1.1 4.7-1.1 2.8 0 4.1-.6 5.3-2.5l1.7-2.5 2.2 2.5c1.2 1.4 2.4 3.2 2.7 3.9.3.9 1.5.3 3.8-1.9 1.9-1.8 5.7-4.7 8.4-6.5 2.8-1.8 5-3.8 5-4.3.1-1.9 1.6-5.5 2.3-5.4.4 0 1.6.4 2.7.8 2.9 1.2 5.1-.3 8.2-5.7 1.5-2.6 3.2-5 3.8-5.4.5-.4.6-.8.1-.8s-.1-.9.9-2c1.9-2.1 1.9-2.1 5.7 2 2.1 2.2 4.5 4 5.4 4 1.4 0 1.5.2.3 1.7-.8.9-.9 1.4-.2 1 .6-.4 2.4.6 4 2.3 4.3 4.6 5.5 4 4.8-2.8-1-10.4-2.5-20.5-3.1-21.1-.2-.2.2-1.1.9-1.9.6-.9.7-1.3.1-.9-.7.4-1.1-.4-1.2-2.1 0-1.5-.2-3.4-.4-4.1-.2-.7.7-1.5 2-1.7 1.5-.3 2.1 0 1.6.7-.3.6.5.4 1.8-.5 1.4-.9 2.8-1.3 3.1-.9.4.3.7.1.7-.6s.5-.9 1-.6c.6.3 1 .1 1-.4 0-.6.7-1.1 1.5-1.1s1.5-.5 1.5-1.1c0-.6.7-.9 1.4-.6 1.1.4 1.3.1.9-1s-.2-1.4.5-.9c.8.5 1.2 0 1.2-1.2 0-1.1.7-2.3 1.6-2.6 1.2-.5 1.5-.2 1 1.1-.6 1.4-.5 1.5.5.6 1-1 .9-1.5-.1-2.8-.9-1.1-.9-1.5-.1-1.5.6 0 1.4.6 1.7 1.4.3.9 1.2 1.2 2.2.8 1.5-.5 1.5-.4.3 1.1-.7.9-.9 1.7-.3 1.7.6 0 .7 1.3.2 3.4-.9 4-.5 4.6 2.5 4.6 1.1 0 2.7.6 3.4 1.2 1.1 1 1.3 1 .7 0-.5-.9.4-1.2 3.3-1.2 2.2 0 4.2.5 4.4 1.2.4 1 .6 1 .6 0 .1-1.6 2.8-1.6 3.4 0 .4 1 .6 1 .6 0 .1-1.6 2.8-1.6 3.4 0 .4 1 .6 1 .6 0 .1-.6.7-1.2 1.5-1.2s1.7.6 1.9 1.2c.4 1 .6 1 .6 0 .1-.6.8-1.2 1.7-1.2.9 0 1.2.5.8 1.2-.6 1-.4 1 .7.1.8-.8 4-1.3 8-1.3h6.6l.2-6.2c.1-3.3.4-6.5.7-7 .5-.7-1.7-1.3-3.8-.9-.5 0-.8-.4-.8-.9 0-.6-.5-1-1.1-1-.5 0-.7.4-.4 1 .3.5.1 1-.4 1-.6 0-1.1-.5-1.1-1 0-.6-.5-1-1.1-1-.5 0-.7.4-.4 1 .3.5.1 1-.4 1-.6 0-1.1-.5-1.1-1.1 0-.8-.4-.8-1.2-.2-1.5 1.1-7.4 1.2-7 0 .1-.4.2-1.1.2-1.5 0-1.1 6.1-5.5 7.6-5.5.7 0 1-.7.6-1.5-.4-1.1-.1-1.4 1.2-.9.9.4 1.5.3 1.2-.1-.9-1.4 3.1-4.1 4.2-3 .8.8.9.5.6-.8-.5-2.2 1.1-5.2 2.3-4.1.4.5.1 1.3-.7 1.8-1.2.8-1.1.9.5.7 1.2-.2 1.9.2 1.8.9-.2.7.2 1.3.8 1.3.6 0 .9-.7.5-1.5-.3-.8-.1-1.5.4-1.5.6 0 1 .9 1 2s-.6 2-1.2 2c-.9 0-1 .3-.2.8 1.4.9 1.4 4.3 0 6.1-.8 1.1-.8 1.3 0 .8 2.2-1.3 2.3 5.3.2 7.3-1.9 1.7-1.9 1.8-.1 1.7 1-.1 1.7.4 1.6 1-.2.7.2 1.3.7 1.3 1.4 0 1.3-1.3-.2-2.8-.9-.9-.9-1.2-.1-1.2.7 0 1.5.9 1.8 2 .3 1.1 1 2 1.5 2s1.2.9 1.5 2c.3 1.1 1.3 2 2.1 2s1.4.4 1.4 1c0 .5.3.9.8.9 2.3-.4 3.4.3 2.8 1.7-.4 1-.2 1.3.6.8.7-.4 4.7-.7 9-.6 4.2 0 8-.3 8.3-.9.4-.5 1.1-.7 1.6-.4.5.4.9.1.9-.5 0-.7.7-1 1.5-.6.8.3 1.4 0 1.2-.7-.1-.7.4-1.1 1.1-1 .6.2 1.2-.4 1.2-1.2 0-.8.4-1.5.8-1.5.5 0 1.5-1.2 2.3-2.8.8-1.5 1.8-3 2.4-3.4.6-.5.5-.8-.3-.8-.7 0-1-.5-.7-1 1.4-2.2 2.4-7 1.4-6.4-.6.3-1-.2-.8-1.2.1-1.1-.2-2.7-.6-3.8-.5-1.2-.3-2.1.6-2.8 1.1-.8 1.1-.9-.3-.5-1.5.5-3.4-1.7-3-3.6.1-.4-.5-.7-1.3-.7s-2-.9-2.7-1.9c-.6-1-1.8-1.7-2.5-1.4-.7.3-1.3 0-1.3-.7s-.7-1-1.5-.7c-.8.4-1.7.2-2.1-.4-.3-.6-1.2-.8-2-.5-.7.3-1.1 0-.8-.7.2-.7 1.8-1.3 3.4-1.3 1.6-.1 2.8.2 2.5.6-.3.4.2 1.3 1 2 1 .9 1.5.9 1.5.1 0-.6-.4-1.1-1-1.1-.5 0-.6-.8-.3-1.7.4-.9.8-1.2 1-.7.2.6 1.6.9 3.2.6 2.5-.3 3-.9 3.3-4 .5-5.9-.2-11.3-1.5-11.1-3.8.5-5.9-.2-5.3-1.7.3-.8.2-1.2-.4-.9-.6.3-1 1.4-1 2.3 0 1.3-.2 1.4-.9.4-.9-1.5-1.7-1.5-4.5 0-1.6.9-1.8.8-1.2-.8.5-1.7.5-1.7-1 .1-1.1 1.4-1.8 1.6-2.1.7-.3-.6-.9-1.2-1.4-1.2-.6 0-.7.4-.4 1 .3.5.3 1-.2 1.1-2.1.2-4.5.8-5 1.3-.3.3-1.3.1-2.2-.4-1.1-.5-2.3-.5-3.2.2-1.1.8-1.1.9.3.4 1-.3 2-.1 2.3.4.4.6.1 1-.6 1s-2.1.8-3.2 1.8c-1.1.9-1.8 1.2-1.4.6.3-.6 0-1.1-.8-1.1s-1.2.4-.9.9c.3.4-.3 2-1.4 3.6-2.8 4-4.4 8.2-4.3 11.4 0 1-.5 1.8-1 1.8-.6 0-.8-.4-.4-.9.3-.5.1-1.2-.5-1.6-.5-.3-1-1.1-1-1.6 0-.6.4-.8.9-.4.5.3 1.2.1 1.5-.4.7-1-1.3-.9-3 .1-.7.5-1-.1-.6-1.7.2-1.4-.3-3.6-1.3-5.1-.9-1.4-1.4-3.1-1.2-3.9.3-.7-.1-1.2-1.1-1.1-.9 0-1.6-.5-1.5-1.1.2-.7-.3-1.2-1-1-.7.1-1.1-.6-.9-1.8.2-1.5.1-1.7-.7-.6-.7 1-1.6 1.1-3.7.4-1.6-.6-3.9-.9-5.1-.8-1.8.1-2-.1-1.2-1.7.6-1 1.4-1.6 2-1.3.5.4.6 1.1.3 1.7-.4.5.5.3 1.8-.6 1.4-.9 2.6-1.4 2.9-1.2.5.6.7-1.4 1.2-15.4.3-8.3.1-12.3-.9-14.5-.7-1.6-1.8-4.8-2.4-7-1-4.4-5.2-9.1-8.5-9.7-1.3-.2-3.4-3.1-6.4-9.1-2.4-4.8-5-8.7-5.7-8.7-.7 0-1.6 1.9-2 4.5-.8 5.3-3.1 5.6-2.6.4.8-9.6.8-30.4-.1-34.2-1.7-7.2-3.7-13.6-3.1-9.8 1.2 6.8 1 22.8-.3 30.5-.7 4.4-1.5 8.2-1.7 8.4-.2.2-2.4-1.1-4.7-2.8l-4.4-3.1-1 2.8c-1.8 4.5-5.6 12.3-6 12.3-.3 0-1.2-1.5-2.1-3.3-2.1-4-6.4-8.7-8.1-8.7-.7 0-1.3 1.1-1.3 2.6 0 2.2-5.5 12.4-6.7 12.4-.6 0 .9-8.4 1.9-10.3 1.9-3.6 3.1-38.5 1.6-45.2-2.8-12.6-10.6-24.9-12.1-18.8-.2 1.2-1.2-.1-2.9-3.7-2.3-5.1-6.1-9-8.8-9-.6 0-1.5 1.2-2 2.6-1.3 3.2-2.4 2.5-5.4-3.5-1.4-2.6-4-5.9-5.9-7.4-3.2-2.4-3.4-3-2.7-6 .7-3.4.5-26.6-.3-30.2-.2-1.1-.7-3.6-1.1-5.5-1.1-6.3-1.4-7.5-2.5-10-1-2.2-1-1.9-.5 1.5 1.9 10.8 1 28.8-2.1 45-.2 1.1-.4 2.6-.4 3.2-.1.7-.6 1.3-1.2 1.3-.5 0-.8-.4-.4-.9.3-.5.1-1.2-.4-1.5-1.3-.8-4.7 2.3-6.8 6.3-2.1 3.8-4.3 5.2-4.3 2.6 0-.9-.4-1.4-.8-1.1-.4.2-.8-.3-.8-1.2-.1-2.9-.8-4.6-2.5-6.2-.9-.8-1.4-2-1.2-2.6.2-.7-.3-1.8-1.1-2.6-1.1-1.2-1.2-1.8-.3-2.7.8-.8.7-1.1-.7-1.1-.9 0-1.4-.5-1.1-1 .3-.6.1-1-.4-1-.6 0-1-.4-.8-.8.2-.8-2.1-5.8-6.9-15.3-1.3-2.5-2.1-4.9-1.7-5.3.3-.3.2-.6-.4-.6-1.1 0-3.6-5.3-3.6-7.6 0-.8-.3-1.2-.5-.9-.8.8-3.3-4.8-2.8-6.2.3-.7.1-1.2-.4-1-1.3.3-9.1-15.3-8.3-16.6.3-.6.1-.7-.5-.3-1 .6-1.6-.4-1.4-2.5.1-.3-.6-.6-1.4-.6-1 0-1.4.7-1.1 1.9.3 1 .2 1.6-.2 1.3-.9-.5-.8 2.6.2 4.2.4.6.3 1.5-.3 1.8-.7.4-.7 1.2-.2 1.8 1.1 1.5.9 12.7-.2 14.6-.6 1-.5 1.2.2.7 1.6-.9 1.5.7 0 2.2-.7.7-.8 1.2-.2 1.2 1.1 0 1.1 18 0 19.9-.4.6-.2 1.1.5 1.1.9 0 .9.3 0 1.4-.8.9-.8 1.6-.2 2 .6.4.7 1.6.3 2.9-.4 1.2-.7 3.3-.7 4.7 0 1.4-.4 2.8-1 3.2-.6.5-.6.8.2.8s.9.9.3 2.9c-.4 1.6-.6 3.2-.4 3.4.3.3 0 3.4-.6 7-1.4 7.7-3.2 9.1-5.6 4.5-.9-1.8-2.3-3.8-3-4.6-.8-.7-1.9-3.4-2.5-5.8-1.4-5.4-2.1-5.9-4.4-3.4-2.4 2.7-3.4 2.5-4.6-.8l-1.1-2.7-1.5 3c-.9 1.6-2.1 3.3-2.7 3.7-.6.4-.7 1.1-.2 1.5.4.4 1.3 0 2-1 1.8-2.4 2.4-2.1 2.8 1l.3 2.6 3.1-2.6c1.8-1.5 3.4-2.7 3.7-2.7.3 0 .8 1.4 1.2 3 .4 1.7 1.7 4.3 3 5.8 1.3 1.6 2.7 4.1 3.1 5.6.6 2.4 1 2.7 3.5 2.2 1.9-.4 2.7-.2 2.4.7-.4 1.2-1.1 6.7-2.1 15.2-.2 2.2-.6 5.5-.9 7.2-.3 1.9-.1 3.3.5 3.3s1-.8 1.1-1.8c0-.9.2-2.6.4-3.7.4-2 2-16.3 2.4-21.4 0-.8.4-1.1.8-.7.7.7 1 1.8 1.8 8.1.9 6.8 1.7 9.8 3.8 13.8l2 3.9 1.8-2.3c1-1.3 3-6.2 4.4-10.8 2.5-7.8 6.2-15.2 8.3-16.5.6-.3 1.3 1 1.6 2.9.8 4.3 2.3 3.8 5.9-2 2.7-4.3 5.7-5.2 5.7-1.9 0 1.2.4 1.2 2.1.3 1.3-.6 1.9-.7 1.5-.1-.3.6.1 1.7 1 2.6.8.9 1.3 2 1 2.4-.3.5.8 3.5 2.4 6.8 1.5 3.2 3.1 7.1 3.5 8.6.4 1.6 1.1 2.8 1.7 2.8.5 0 .7.4.3.9-.3.5 0 1.5.7 2.3.7.7 1.5 2.2 1.6 3.3.2 1.1.8 2.3 1.4 2.6.5.3-1.9.9-5.3 1.3-5.2.5-7.1 1.3-11.5 4.6-7.5 5.7-16.9 20.8-18.9 30.6-1.1 5.5-2.1 13.2-1.9 14.8.1.8.5 3.4.8 5.7 1.4 10.3 9.6 22.2 17.7 25.8 11.5 5.2 26.2-3.6 34.6-20.5 2-4.1 4.1-7.4 4.7-7.4.6 0 .4.5-.4 1-1.2.8-1.2 1-.1 1 .8 0 1.1.3.8.7-.4.3.1 1.5 1 2.6 1 1.1 1.2 1.7.6 1.3-.7-.4-1.3-.2-1.3.3 0 .6.5 1.1 1.2 1.1.6 0 .9.3.5.6-.3.3.1 2.5 1 4.7.8 2.3 1.6 5 1.9 5.9.2 1 .6 2.7.9 3.8.3 1.1.7 2.8.9 3.8.2 1.1-.7 3.2-2.1 4.8-3.4 4-7 10.3-7.9 13.9-.4 1.6-1 3.4-1.5 4-.7 1-.9 1.6-.9 3.6 0 .7-1 .9-2.5.7-1.3-.3-2.2-.1-1.9.3.9 1.5-.6 1-2.3-.6-1.4-1.4-1.7-1.4-3.5.2-1.5 1.3-1.9 1.4-1.6.3.2-1-.3-1.4-1.6-1.2-1.2.2-1.6-.1-1.1-1 .6-1 .5-1.1-.6-.1-.7.7-3.5 1.3-6.2 1.3-4.4 0-4.9.2-4.4 1.9.4 1.7.2 1.8-1.3.9-1-.7-1.6-1.7-1.3-2.4.2-.7-.3-1.1-1.4-1.1-1 .1-1.7-.3-1.6-.8.1-.6-.6-1.1-1.5-1.2-1.8-.1-8.4-2.5-9.2-3.3-1-1-17.2-1.4-22.5-.5-5.3.8-12.1 4.3-14.9 7.5-2 2.4-5.4 3.1-4 .9.3-.5.2-.9-.3-.8-.4.1-1.1 0-1.5-.1-.5-.1-1.1-.3-1.5-.5-2.7-.7-4.2-1.9-3.6-2.8.3-.6.1-.7-.5-.3-1.4.8-16.3-6.9-15.4-8 .4-.4.2-.4-.4-.1-.6.3-4-.8-7.5-2.5-6.8-3.2-6.8-4.5 0-2.9 2.9.6 4.1.6 4.1-.3 0-.6-2-1.2-4.9-1.3-4.4-.1-5.7-.8-11.7-5.7-11.6-9.6-22.2-11.8-32-6.8-8.9 4.6-15.4 16.6-12.2 22.6.7 1.3.6 2.1-.3 2.8-1.1.8-1 .9.3.4 1-.3 2-.1 2.3.4.4.6.1 1-.5 1s-.8.5-.5 1c.4.6 1.1.7 1.7.4.6-.4.8-.3.5.2-.3.6-3.5.9-7.2.8-3.6-.1-6.8.2-7 .6-.3.5-1.7.6-3.3.4-1.5-.3-3.8-.6-5.1-.7-1.8-.2-3.2-1.7-5.8-6.2-3.1-5.6-3.3-6.6-3.2-14.5.1-4.7 0-10.6-.1-13.1-.2-4.3 2.9-13.9 4.6-13.9.4 0 1.2.7 1.9 1.6 1 1.4 1.6.9 4.6-3.7 5-7.9 8.7-11.1 11.1-9.8 1 .5 2.1 2.4 2.5 4.1l.6 3.1 1.5-2.9c2.1-4.2 7.3-9.4 9.3-9.4 1.3 0 1.9 1.1 2.5 4.5.7 5 1 5.2 3.6 2.9 1.7-1.6 2-1.5 5.3 2 1.9 2.1 3.5 4.4 3.5 5.1 0 2.1 1.9 2.8 3.5 1.5.8-.7 2.6-.9 3.9-.6 3.6.9 4.1-1 1.3-4.8-2.8-3.6-5.7-12.3-5.7-17.1 0-1.8-.7-4.6-1.6-6.4-1.3-2.6-1.5-5.1-1-12.9 1.1-18.5 1.7-21.6 3.9-23.3 1.4-1.2 2.2-3.1 2.4-6 .4-5.4 3-17.9 4.2-19.7.6-1 1.1-.5 2 1.8 1.4 4 2.6 3.2 6.6-4.2 5-9.4 8.5-11.8 8.5-6 0 1.5.5 3.4 1 4.2 1.2 1.7.9 1.9 6.7-6.4 3.6-5.1 6.4-5.9 8-2.4l1 2.3 1.2-2.3c1.5-2.8 4.5-2.8 6 0 1.1 2.3 1.1 2.3.5-.2-.3-1.4-1.5-3.9-2.5-5.6-1-1.7-2.1-4.8-2.4-7-.3-2.1-.8-4.5-1.1-5.3-.9-2.6-1.7-15.6-1.5-23.6.3-13.6.6-15 3.4-15 .7 0 1.2-1.2 1.2-2.8.1-1.5-.3-2.7-.7-2.7-.4 0-.8-.5-.8-1.1 0-.5.4-.8.8-.5.4.2.8-.6.8-2 0-1.3-.4-2.4-1-2.4-.5 0-.1-1 1-2.2 1-1.2 1.3-1.8.5-1.3-1.1.6-1.3.3-.8-1.4.4-1.8.2-2.1-1.1-1.6s-1.3.2.3-1.5c1-1.1 1.3-2 .7-2-.7 0-.9-.8-.4-2.3.7-2.2.7-4.3-.1-12.7-.3-2.5-.1-5.3.4-6.2.5-.9.5-1.9.1-2.2-.5-.3-.7-4.1-.5-8.5.2-4.5.1-8.1-.2-8.1-.3 0-.5 1-.6 2.2zm42.3 67c-.1.5.3.8.8.8.6 0 1 .7 1 1.5s.5 1.5 1.2 1.5c.6 0 .9.3.5.6-.3.4 0 1.9.9 3.5.8 1.6 1.3 3.1 1.2 3.3-.2.2.5 1.3 1.5 2.4 1.1 1.2 1.6 2.6 1.2 3.1-.3.6-.2 1.1.3 1.1.9 0 3.8 6.9 3.4 8.3-.1.5.2.6.8.2.5-.3 1 .1 1 .9 0 .9.5 1.6 1.1 1.6.8 0 .7.6-.2 1.7-.7 1-.9 1.5-.5 1.1.9-.8 3.6 3.5 3.6 5.7 0 .7.7 1.8 1.5 2.5.8.6 1.4 1.5 1.3 1.8-.1.4 1 3.3 2.5 6.5 3.2 6.9 3.3 7.1.7 6.4-1.1-.3-1.8-.2-1.5.3.3.4-.2 1.3-1 2s-1.5 1.8-1.5 2.5-.7 1.8-1.6 2.5c-1.3 1.1-1.6 1-2.1-.8-1.3-5.1-5.3-1.7-9.8 8.3-5.9 12.7-6.5 14.3-6.5 16.4 0 1.2-.4 2.1-.9 2.1-2.1 0-3.4-3.7-5.2-14.6-1.1-6.5-2.4-12.6-3-13.6-.5-1-.6-1.8-.2-1.8.4 0 .9-1.9 1-4.3 0-2.3.4-9.6.8-16.2s.8-21 .9-32.1l.1-20.1 3.4 7.1c2 3.9 3.4 7.4 3.3 7.8zm-41.8-10.3c.3.5-.1 1.1-.9 1.4-.9.4-1.2.1-.8-.9.6-1.6 1-1.7 1.7-.5zm83.2 63c.2.2 1.5-.4 2.9-1.3 2.9-1.9 4.9-1.1 6 2.5.4 1.2 1.4 1.8 2.8 1.6 1.7-.1 2.8 1 5 5 1.5 2.9 3.7 5.8 4.7 6.3 1.6.9 2.1.6 2.6-1.5.3-1.4 1-2.5 1.6-2.5 2.2 0 5.7 5.1 7.7 11.3 2.5 7.6 3.8 8.9 4.7 5.2 1.2-5 3.4-2.4 5.9 7.2 2.1 7.7 3.1 41.7 1.4 45.9-3 7.6-6.5 18-6.3 19.1.1.7.2 1.7.3 2.3.2 2 1.7.9 3.5-2.5 1.1-1.9 3.7-5.2 5.8-7.4 3.4-3.3 4.4-5 4.7-8.4.3-2.2 3.3-.1 6 4.3 1.7 2.7 3.5 5 4 5s1.4-1.3 2.1-3c.7-1.6 2.3-3.6 3.6-4.5 1.3-.8 2.3-1.9 2.3-2.3-.8-5.1 4.3-2.2 10 5.7 2.4 3.3 4.8 5.8 5.2 5.5.5-.2 1.1-2 1.5-3.9.3-2 1-3.7 1.4-4 .5-.3 3 3.8 5.7 9 3.8 7.5 5.2 9.5 6.9 9.5 1.2 0 2.6.6 3.1 1.2.9 1.1 2.3 5.4 2.2 6.8 0 .3.5 1.8 1.2 3.5 1.5 3.7 2 20 .6 23.8-.9 2.7-1 2.7-3.3 1.2-1.8-1.2-2.4-1.2-2.5-.3-.2 3.8-1.2 7.4-2.1 8.3-.8.7-.9.4-.4-1 .5-1.7.4-1.8-.6-.5-.9 1-3.3 1.5-7.6 1.6-5.3 0-6.2-.2-5.7-1.5.4-1.3.2-1.2-.8.1-1.1 1.4-1.6 1.5-2.7.5-1-.9-1.1-.9-.6 0 .5.9-.2 1.3-2.4 1.3-1.9 0-2.9-.4-2.5-1 .4-.6 1.1-.7 1.7-.4.7.4.8.2.4-.5-1-1.5-3.7.5-3.1 2.2 1.4 3.7 1.1 8.8-.4 9.7-1.4.8-1.4.9.2 1 1 0 1.6.4 1.3.9-.3.5.6 1.7 2 2.6 1.5.9 2.4 1.3 2 .7-.3-.6 1.6-1 4.8-1h5.4l-1.1 2.7c-1.6 3.9-2.9 5.2-4.2 4.7-.7-.2-2.9.9-4.8 2.5-3 2.5-4 2.8-5.6 1.9-1.3-.7-2.2-.7-2.6 0-.9 1.5-2.8 1.2-2.2-.4.3-.8-.1-1.7-1-2-.8-.4-1.3-1.3-1-2.1.4-.8.1-1.2-.7-.9-.7.3-2-.4-3-1.5s-2.3-1.8-2.9-1.4c-.6.4-.7.1-.2-.7.6-1 .4-1.2-.8-.7-1 .3-1.7.3-1.7-.1 0-1.8 2.7-3.2 6.2-3.2 2.9 0 3.8-.4 3.9-1.8.2-5 .8-6.6 3-8.4 1.3-1.1 1.9-1.7 1.4-1.5-.6.3.3-2.2 2-5.6 2.5-5.1 3-7.3 3-13.3 0-6.4-.3-7.7-3-11.5-4.2-6-11.9-9.9-19.4-9.9-4.4 0-7.2.8-12.6 3.4-3.9 1.8-8.3 4.5-10 5.9-1.6 1.5-3.2 2.4-3.5 2.1-.9-.9-.6-2.9.5-3.6.6-.5.6-.8-.2-.8-.7 0-1.3-.9-1.3-2.1 0-1.1-.4-1.8-.9-1.5-.4.3-.8-.2-.8-1.2 0-3.2-.3-4.3-1-3.9-.5.3-.9-1.1-1-3-.1-1.9-.7-4.1-1.4-4.9-.6-.8-.8-1.4-.4-1.4s0-1-.8-2.3c-1.1-1.7-1.2-2.8-.5-4.1.6-1.1.6-1.6.1-1.3-.5.3-.9-4.9-.9-12.6 0-12.3-.2-13.6-2.7-19.2-3-6.4-7.5-11.8-11.9-14.1-2.8-1.4-5.8-6.5-6.1-10.3-.1-1.1-.5-2.1-.9-2.1s-.8-.7-.8-1.5-.6-1.5-1.2-1.6c-1 0-1-.2 0-.6.9-.4.7-1-.8-2.3-1.1-1-2-2.2-1.9-2.6.3-2.1-.2-3.5-1.1-2.9-.6.3-.7-.1-.4-1 .4-.8.1-2.2-.6-3-.7-.8-1-2.2-.6-3 .3-.9.2-1.4-.3-1-.5.3-1.5-1.1-2.1-3.1-1-3-1-3.8.6-5.5 1-1.1 1.9-2.7 2-3.5.1-.9 1-2.5 2-3.5 1.7-1.9 1.8-1.9 2.7-.2.6 1 1.1 2 1.3 2.2zm-87.4 142.6c6.6 3.2 11.5 6.2 11.1 6.8-.3.6-.1.7.5.3 1.5-.9 7.5 2.2 6.7 3.4-.3.6.1.7.9.4 2.1-.8 2-.1-.5 4.9-3.3 6.5-6.9 9.2-6.9 5.1 0-.7-1.4-2.7-3-4.4-1.7-1.7-2.7-3.6-2.4-4.2.4-.7.2-.8-.4-.4-.6.4-2 .1-3.2-.6-2.1-1.4-2.9-3.4-.7-2.2.9.5.9.3-.1-.7-1.1-1.2-1.4-1.2-2.2.1-.8 1.3-1 1.2-1-.3 0-1 .6-2 1.3-2.3.7-.2 1.3-1.4 1.4-2.4.1-1.1-.2-1.8-.8-1.5-.5.4-.9 1.3-.9 2.2 0 1.2-.3 1.3-1.4.4-1-.8-1.6-.9-2.1-.1-.4.6-.3.9.2.8.8-.3 1.3.5 1.3 2.2 0 .6-.9.6-2.6 0-1.4-.6-3-.8-3.5-.4-.5.3-1-.3-1.1-1.3 0-1-.2-2.3-.3-2.8-.2-.6-.3-1.3-.4-1.8 0-.4-.2-1-.2-1.5-.1-.4-.8-1.6-1.5-2.7-1.5-2.1-1.9-3.9-.6-3.2l12.4 6.2zm96.2 8.2c.4 1 .4 1.4 0 1-.4-.4-1.4-.1-2.2.6-1.3 1-1.4.9-.3-1.1 1.4-2.7 1.7-2.7 2.5-.5zM106.5 326c.3 0 .3-.6-.1-1.3-.6-.9-.5-.9.8 0 .8.7 1.9.9 2.4.5s0 .3-1 1.5c-2 2.4-4.8 1.8-6-1.2-.4-1.3-.2-1.4 1.4-.5 1 .5 2.1 1 2.5 1zm58.5-.5c-.7.9-.5 1.7.7 2.6 1.5 1.2 1.6 1.2 1-.3-.9-2.6.7-3 3.1-.7 1.5 1.3 2.2 1.5 2.3.7 0-1 .2-1 .6.1.5 1.1.7 1.1 1.5 0 .7-1 .8-.9.4.6-.6 2-.6 2 .9.1 1.3-1.7 1.5-1.8 1.5-.3 0 1.9 1.5 2.3 2.6.5.4-.7.3-.8-.4-.4s-1.2.3-1.2-.3c0-1.3 4.1-1.1 5.9.3 1.1.8 1.3.8.7-.2-.4-.7-.1-1.2.8-1.2 2.3 0 1.9 1.7-.7 3.5-1.7 1.1-3.1 1.2-5.6.5-1.8-.5-3.9-.6-4.7-.3-.8.3-1.4 0-1.4-.7 0-.6-.5-.8-1.2-.3-2.3 1.3-4.2 1.2-6-.4-1.6-1.4-1.8-1.4-2.4.1-.3.9-1 1.6-1.6 1.6-.5 0-.6-.5-.3-1 .3-.6.2-1-.4-1-.5 0-1.3.4-1.6 1-.3.5-1 1-1.5 1-.4 0 .5-1.5 2.1-3.3 1.6-1.9 3.6-3.4 4.4-3.4 1 0 1.2.4.5 1.2zm194.3-.6c.5-1.2.8-1.1 1.6.1.5.8 1.7 2.4 2.5 3.5l1.6 2-.6-2c-.4-1.4-.3-1.6.4-.7.7 1.1 1 1.1 1.5-.2.4-.9 1.2-1.6 1.9-1.6.9 0 .8.3-.2 1-.8.5-1.1 1-.5 1 .5 0-.1.7-1.3 1.6-1.2.8-2.5 1.3-3 1.1-.4-.3-1.6 0-2.7.4-1.8.9-1.8.9.3.5 1.2-.2 2.2 0 2.2.5s-.3.9-.7.9c-.5 0-3.2 2.3-6.2 5s-6.2 5.2-7.2 5.5c-1.1.4-1.9 1-1.9 1.5 0 .4-1.2 1.5-2.6 2.5-2.2 1.4-2.8 1.5-3.6.4-.6-1-.7-.7-.3.8.4 1.4.2 2.3-.4 2.3-.6 0-1.1-.5-1.1-1 0-.6-.5-1-1.2-1-.6 0-.3.9.7 2s1.3 2 .8 2c-2.4 0-3.4-2.8-2.4-6.4.5-2.1.6-3.4 0-3.1-.5.4-.9-.1-.9-.9 0-.9.5-1.6 1.1-1.6.5 0 .7-.5.4-1-.3-.6-.1-1 .4-1 .6 0 1.1.4 1.1 1 0 1.6 2.3 1.1 5-.9 1.8-1.4 2.9-1.7 4.2-1 1.4.8 2 .6 2.5-.8.3-1 1.9-3.7 3.5-6 1.5-2.3 2.8-5 2.8-6 0-1.4.2-1.5.9-.4s.9 1.1 1.4 0zm7 .6c-.2.7-1 1.2-1.8 1.2s-1.6-.5-1.8-1.2c-.3-.6.5-1.1 1.8-1.1s2.1.5 1.8 1.1zm-266.8 2.6c-.4 1.1-.3 1.9.2 1.8 2.6-.4 3.5.1 2.4 1.5-.8 1-.9 1.6-.1 2.1.5.3 1 0 1-.7 0-1 .2-1 .9 0 .4.8 1.2 1.4 1.6 1.4.4 0 1.2-.6 1.6-1.4.6-.9.9-1 .9-.1 0 .7.7 1 1.8.6 1.4-.5 1.3-.3-.3 1.1-1.6 1.3-1.7 1.5-.2 1 1.8-.7 2.4 1.1.6 2.1-.6.4-.8 1.3-.5 2 .2.7-.6 3.3-1.9 5.8-1.3 2.4-2.2 4.7-2 5.1.3.3.2.4-.2.1-1.1-.9-1.2-3.4-.2-4.1 1.2-.7 1.2-3.4-.1-3.4-.5 0-.7.6-.4 1.4.6 1.5-1.1 1.6-3.3.3-.9-.6-1.1-.3-.7.7.8 2-.3 2-2.2.1-.9-.8-2-1.5-2.6-1.5-.6 0 .1.9 1.5 2s3.2 1.7 4.1 1.4c1.9-.7 2.3 2.1.4 3.2-.7.4-.8.3-.4-.4.6-1.1-1.2-1.7-3.6-1.3-.4 0-1.5-1-2.4-2.4-.9-1.4-1.9-2.3-2.3-2-.4.2-.8-.2-.8-1s.4-1.2.8-.9c.4.2.7-.5.6-1.6-.1-1.9-1-2.4-3-2.1-.5.1-.6-.3-.2-.9.4-.7 1.2-.7 2.6 0 1.1.6 1.7 1.5 1.4 1.9-.2.5.2 1.4 1 2.1.8.7 1.5.9 1.5.4s.5-.2 1 .6c.6 1 1 1.1 1 .2 0-.6.3-1.1.8-1.1.4.1.9 0 1.2-.1 1.9-.7 5.6-.5 6.2.4.4.6.6.1.5-1.1-.1-1.7-.5-2-1.8-1.2-1.2.6-2 .5-2.5-.2-.4-.8-.9-.7-1.5.2-.7 1.1-.9 1.1-.9-.1 0-1.3-.1-1.3-1 0-.8 1.3-1 1.3-1-.1 0-.9-.9-2.4-2-3.4s-2-1.3-2-.8c0 .6.7 1.6 1.5 2.3 1.7 1.4 2 3 .4 3-.5 0-.8-.4-.4-.9.3-.5-.4-1.6-1.6-2.4-1.3-1-1.7-1.7-.9-2.2.6-.4.8-1.6.5-2.8-.4-1.2-.3-1.8.2-1.2 1 1.3 3.3 1.8 3.4.7 0-.4.2-1.7.3-3 .2-1.8-.1-2.1-1.7-1.6-1.7.5-1.8.4-.6-.9 1.9-1.9 4.1-1 3.4 1.4zm34.1 1c-.2 1.6 0 2.7.5 2.3.5-.3.7-1 .4-1.5-.4-.5.2-.6 1.1-.2 1.1.4 1.3.8.6 1.1-.7.2-1.2.8-1.2 1.3 0 .6.5.7 1 .4.6-.3 1 .2 1 1.2 0 1.1.6 2.5 1.3 3.3 1 1.2.9 1.2-.6.1-1.5-1.2-1.7-1.2-1.2 0 .3.8 1.5 1.9 2.8 2.4 1.5.7 2.1 1.8 2 3.3-.2 1.2.2 2.2.8 2.2.5 0 .7-.5.4-1-.3-.6.3-1 1.4-1 1.1 0 2.2.4 2.5.9.3.4 2.1.7 4 .6 1.9-.1 3.3.2 3 .7-.3.4-.1.8.5.8.5 0 1.2-.4 1.5-.8.6-1 9.7-.9 11.4.2.6.3.9 1.3.5 2.2-.5 1.3-.7 1.2-1.8-.2-.7-1.1-1.7-1.4-2.5-.9-.9.6-1.1.4-.5-.5.5-.9.4-1.1-.4-.6-.9.6-.9 1.1 0 2.2s.9 1.4 0 1.4c-.7 0-.9.4-.6 1 .7 1.1-1.9.3-5-1.5-1.1-.7-4.6-1.1-7.7-1-3.8.1-5.5-.2-5-.9.3-.6-.2-.5-1.1.3-.9.7-1.7.9-1.7.3 0-.5-.7-1.3-1.6-1.6-1.4-.5-1.5-.4-.4.9 1 1.3.9 1.5-.8 1.5-1.2 0-2.4.4-2.7 1-.3.6.1.7.9.4.9-.3 1.6-.2 1.6.4 0 .6 1.1 2.4 2.5 4 1.3 1.6 2.1 3.2 1.7 3.6-.4.4-.1.6.7.4.8-.2 2 .8 2.8 2.2.7 1.4 1.3 1.9 1.3 1.1 0-1 .4-1.1 1.3-.3 1.8 1.5 12.5 4.4 13.7 3.7.5-.3 1-.2 1 .4 0 .6.7.8 1.5.5.9-.4 1.8.2 2.4 1.7 1.4 3.8 8.1 10 12.9 12.1 7.2 3.2 13 3.1 20-.2 12.7-6 30.5-7.8 46.7-4.8 15.1 2.9 21.3 2.9 29.2.3l6.8-2.3 6.8 5.5c3.7 3.1 6.9 5.9 7.2 6.3.2.4-.6 2.8-1.8 5.3-2.5 5.2-9.8 11.2-11.5 9.5-1.2-1.2-3.2-.2-3.2 1.7 0 2.8-2.3 6.2-5.3 8-1.8 1-4.6 3.5-6.3 5.4l-3.2 3.6-3.3-3.3c-3.5-3.4-5.9-4.1-5.9-1.7 0 .9-.8 1.8-1.7 2.1-1 .3-3.5 1.3-5.6 2.2-3.8 1.5-4 1.5-5.5-.6-1-1.2-2.7-2.3-3.9-2.5-1.2-.2-3.1-1.1-4.1-2-2.5-2.2-3.2-2.2-7.3.9-2.4 1.8-4.2 2.4-6.1 2-1.4-.3-4.1-.1-5.9.4-2.8.8-3.7.6-5.5-1.1l-2.2-2.1-1.6 3.1c-2.8 5.4-8.5 6.7-12.5 3-2-1.9-2.6-2-4.7-.8-2.3 1.2-2.7 1-5.3-1.8-1.5-1.7-4.1-3.8-5.7-4.6-2.8-1.4-4.4-3.7-5.8-8-.4-1.2-1.4-1.7-3.3-1.5-2.3.3-3-.3-4.5-3.4-1.6-3.3-2.5-6.3-2.7-9.2-.1-.4-1-.6-2.2-.3-1.7.5-2.5-.4-5-6.1-2.5-5.6-3.2-8.1-3.8-14.6-.1-.4-.9-.6-1.9-.4-3 .8-5.5-1.9-7.3-7.5-1-3.3-2.4-5.6-3.9-6.3-2.7-1.4-8.3-7.4-7.6-8.2.3-.2 1.4.1 2.3.9 1.6 1.3 1.7 1.2.5-.2-1.5-1.9-2.5-6.2-1.3-5.5.5.3.7-1.3.5-3.4-.2-2.8.1-3.9.9-3.4.7.3.3-.2-.7-1-1.1-.9-1.5-1.6-1-1.6.6 0 1-1.3.9-3-.1-1.6.2-2.7.7-2.4.5.3.7 1.9.4 3.5zm156.4-1.8c2.7 2.3 4.2 8.5 1.7 7.1-.9-.6-.9-.4-.1.7 1.2 1.5 1.5 5.1.4 4.4-.4-.2-.7.2-.7 1s.4 1.2.7 1c.4-.3.8.7.8 2 0 1.4-.6 2.5-1.2 2.5s-.4.5.4 1 1.1 1 .6 1c-.5 0-.3.7.4 1.5.6.8.9 1.9.5 2.5-.3.5-.2 1 .2 1 .5 0 1.9 1.8 3.3 4 1.3 2.1 2.6 3.7 2.9 3.5.7-.8 3 1.6 2.7 2.8-.1.7-.1.9.1.4.3-.4 1.1-.7 1.9-.7.9 0 1.2.5.8 1.2-.5.7-.2.9.8.6.8-.4 2.1-.2 2.9.3.8.5.9.9.2.9-.6 0-3 3.5-5.3 7.7-2.3 4.3-4.7 8.1-5.2 8.4-.6.4-2.4-.6-3.9-2.2-1.6-1.7-2.9-2.8-2.9-2.6 0 .3-1.8-1.2-4.1-3.3l-4.1-3.7 2.7-2.9c2.5-2.7 4.1-6.9 3.9-10.7-.1-.9.3-1.7.9-1.7.5 0 .4-.7-.3-1.5s-1-2.1-.7-2.9c.3-.8.2-1.6-.3-1.8-.5-.2-1-1-1.2-1.8-.5-2.6-9.1-10.4-14.1-12.8-2.6-1.3-4.7-2.6-4.7-2.9 0-1.6 5.7-5.3 7.7-5 1.2.2 2 0 1.7-.4-.3-.5 1.4-.9 3.8-.9 3 0 5 .7 6.8 2.3zm-153.5.7c.3.5.1 1-.4 1-.6 0-1.1-.5-1.1-1 0-.6.2-1 .4-1 .3 0 .8.4 1.1 1zm249.5 2c-.9.5-.6 1 1 1.5 1.7.5 1.9.9.9 1.5-.8.6-1.8.2-2.7-1.1-1.4-2-.8-4.4 1-3.3.7.4.6.9-.2 1.4zm-289 0c0 .5-.7.7-1.5.4-.8-.4-1.5-.8-1.5-1 0-.2.7-.4 1.5-.4s1.5.4 1.5 1zm-4 4c0 .5-.5 1-1.1 1-.5 0-.7-.5-.4-1 .3-.6.8-1 1.1-1 .2 0 .4.4.4 1zm19.6 3.9c-.4.5 0 1.2.6 1.4.8.3.6.6-.4.6-1.8.1-2.4-1-1.1-2.2.9-1 1.5-.8.9.2zm206.7 3.6c.9.4 1.7 1 1.8 1.4 0 .3.2 1.4.4 2.3.2 1-.1 2-.6 2.4-.5.3-.7 1-.4 1.5.3.5-.2.6-1.1.2-1-.4-1.5-.2-1.1.4.8 1.3-2.6 1.3-3.5-.1-.6-.8-1.1-.7-1.7.3-.6.9-1.1 1-1.5.2-.4-.6-.2-1.1.4-1.1.6 0 .8-.5.5-1-.4-.6-1.1-.7-1.7-.4-.7.4-.8.2-.4-.4.4-.7.1-1.2-.6-1.2-.8 0-.9-.3-.3-.8.6-.4 1-1.4 1-2.2-.1-.8 0-1.8.2-2.2.4-.8 6-.3 8.6.7zm90.3-.6c-.3.5 0 1.1.8 1.4 1.9.8 2.8 4.7 1 4.7-.8 0-1.4.4-1.4.8 0 .5.7.9 1.5.9s1.5-.5 1.5-1.1c0-.6.5-.4 1 .4.6.9 1 1 1 .3 0-.6-.4-1.5-1-1.8-1.3-.8-1.3-3.5.1-3.5.5 0 .8.4.5.9-.3.5 0 1.4.7 2 1 .8 1.4.7 1.4-.4 0-.8-.4-1.2-.9-.9-.5.3-.8.2-.7-.3.4-2.2-.3-3.1-2.1-2.8-1.1.2-2 0-2-.6 0-1.1 3.7-.6 5 .7 1.5 1.5 2 5.3.9 5.9-.5.4-.7 1.1-.4 1.6.4.5 0 .9-.7 1-6.4.5-8.5.4-10-.6-1-.7-1.5-1.5-1.1-1.8 1-1.1 2.5-.8 1.8.3-.3.6.1.7 1 .3 1.3-.5 1.4-.7.3-1.4-.7-.5-2.1-.6-3-.3-1.9.6-1.8-1.1.2-4.4.8-1.2 2.3-2.2 3.3-2.2s1.6.4 1.3.9zm-296.3 1.4c-.4.7.1.8 1.2.3 1.4-.5 1.6-.4.7.7-.7.8-1.1 1.6-.9 1.8.1.2-.3-.1-.9-.8-1.6-1.8-2.6-.3-1.2 1.6 1 1.3 1 1.4-.2.3-1.9-1.6-3.5-1.5-2.1.2.9 1 .8 1.6-.4 2.6-.9.7-1.8 1-2.2.6-.3-.3 0-.6.8-.6 1.1 0 1.1-.2-.1-1-1-.6-1.1-1-.2-1 .6 0 1.1-.3 1-.8-.4-1.3 2.4-4.9 3.8-4.9.7 0 1 .5.7 1zm51.9 6.5c.3 1.1 0 1.9-.8 1.9-.7 0-1.2-.9-1.1-1.9.1-1 .4-1.8.8-1.8s.9.8 1.1 1.8zm-74.6 13.3c.3.6-.5.3-2-.6-1.4-1-2.6-1.9-2.6-2.2 0-.7 3.9 1.7 4.6 2.8zm221.2 9.7c-1 1.2-1 1.4 0 .8.9-.5 1.2.3 1.2 2.8 0 2 .3 3.6.8 3.6.6 0 .9 2.9 1.6 14.2 0 1.6.4 2.8.7 2.8.3 0 .6.7.6 1.5 0 2-.1 2-4.8-2.3-10.8-9.8-10.7-9.7-9.6-11.8.6-1 1.4-2.2 1.9-2.5.6-.3.9-.9.8-1.3-.4-1.5 6-10.7 7-10.1.8.5.7 1.2-.2 2.3z"/><path d="M357.5 306c-.3.5-.1 1 .4 1 .6 0 1.1-.5 1.1-1 0-.6-.2-1-.4-1-.3 0-.8.4-1.1 1zM353.6 308.2c.3.5 1 .6 1.5.3 1.3-.9 1.1-1.2-.6-1.2-.8 0-1.2.4-.9.9zM337.5 313.9c-.6 1.1 1.3 2.6 2.2 1.7.4-.3.1-.6-.6-.6s-.9-.5-.6-1c.3-.6.4-1 .1-1-.3 0-.7.4-1.1.9zM335 316c0 .5.5 1 1.1 1 .5 0 .7-.5.4-1-.3-.6-.8-1-1.1-1-.2 0-.4.4-.4 1zM327 325c0 .5.5 1 1.1 1 .5 0 .7-.5.4-1-.3-.6-.8-1-1.1-1-.2 0-.4.4-.4 1zM331.5 327c1 1.1 2 2 2.3 2 .3 0-.3-.9-1.3-2s-2-2-2.3-2c-.3 0 .3.9 1.3 2zM349.5 326c.3.5.8 1 1.1 1 .2 0 .4-.5.4-1 0-.6-.5-1-1.1-1-.5 0-.7.4-.4 1zM329 328c0 .5.5 1 1.1 1 .5 0 .7-.5.4-1-.3-.6-.8-1-1.1-1-.2 0-.4.4-.4 1zM179 314.1c0 .5.5.7 1 .4.6-.3 1-.8 1-1.1 0-.2-.4-.4-1-.4-.5 0-1 .5-1 1.1zM184 318c.8.5 2 1 2.5 1 .6 0 .3-.5-.5-1s-1.9-1-2.5-1c-.5 0-.3.5.5 1zM162.1 326.4c-.8 1-.9 1.6-.1 2.1.5.3 1 .5 1.1.3.4-1.8.7-3.8.4-3.8-.1 0-.8.6-1.4 1.4zM167.9 327.4c.9 1.1.9 1.5-.1 1.9-.7.3-.3.4.9.4 2.1-.1 2.1-.2.6-1.9-1.9-2.1-3.1-2.4-1.4-.4zM181 330.1c0 .5.5.7 1 .4.6-.3 1-.8 1-1.1 0-.2-.4-.4-1-.4-.5 0-1 .5-1 1.1zM359.5 328c.3.5 1.1 1 1.6 1 .6 0 .7-.5.4-1-.3-.6-1.1-1-1.6-1-.6 0-.7.4-.4 1zM357.5 334c.3.5.8 1 1.1 1 .2 0 .4-.5.4-1 0-.6-.5-1-1.1-1-.5 0-.7.4-.4 1zM352.6 336.2c.3.4.9.8 1.5.8.5 0 .9-.4.9-.8 0-.5-.7-.9-1.5-.9s-1.2.4-.9.9zM352 339c-.8.5-1.2 1.2-.9 1.5.4.3 1.2-.1 1.9-1 1.4-1.7 1.1-1.9-1-.5zM347 342.2c0 .4.4.8.9.8.6 0 1.2-.4 1.5-.8.3-.5-.1-.9-.9-.9s-1.5.4-1.5.9zM341.9 342.2c-.6 2.2-.5 3.9.3 4.5.6.3.8.1.4-.5-.3-.5 0-1.3.6-1.5 1-.4 1-.6 0-.6-.7-.1-1-.6-.7-1.1.3-.6.4-1 .1-1-.3 0-.6.1-.7.2zM98.8 332.5c-.8 1.9-1.4 2.2-2 1.3-.5-.9-.8-.9-.8-.1 0 1.5 5 5.4 6 4.8.5-.3 1.1-.1 1.5.5.4.6 1.7.4 3.6-.5 3.1-1.7 4-2.8 1.2-1.8-1.2.5-1.5.2-1.1-.9.5-1.1 0-1.4-2-1.3-3.3.2-5.3-1.1-4.5-3.1.9-2.5-.7-1.5-1.9 1.1zm2.7 2.4c.3.6 1.4.8 2.4.6 1.8-.3 1.9 0 1.2 3.4-.1.2-.8-.2-1.6-.9s-1.5-.9-1.5-.6c0 .4-.9.2-2-.4-1.1-.6-1.8-1.5-1.5-2.1.8-1.2 2.2-1.2 3 0z"/><path d="M99 335.4c0 .2.7.7 1.6 1 .8.3 1.2.2.9-.4-.6-1-2.5-1.4-2.5-.6zM134 335c-.9.6-1 1-.3 1 .6 0 1.5-.5 1.8-1 .8-1.2.4-1.2-1.5 0zM133 338.1c0 .5.5.7 1 .4.6-.3 1-.8 1-1.1 0-.2-.4-.4-1-.4-.5 0-1 .5-1 1.1zM135.2 339.5c.4.4 0 1.4-1 2.2-1.6 1.2-1.6 1.3.2.6 1.5-.5 1.7-.3 1.1.8-.5.8-.4 1.1 0 .6 1.4-1.2 1.4-3.6.2-4.4-.7-.3-.9-.3-.5.2zM139 342c-.9.6-1 1-.3 1 .6 0 1.5-.5 1.8-1 .8-1.2.4-1.2-1.5 0zM144.5 345.2c.3.8 2.2 1.4 4.5 1.4 4.6.1 4.7-.7.2-1.1-1.6-.1-3.5-.5-4.1-.9-.6-.4-.9-.2-.6.6zM156 346c-.8.5-.5 1 .7 1.5 3.3 1.4 4.5 1.5 3.4.1-.6-.7-.9-1.5-.6-1.8.8-.7-2.3-.6-3.5.2zM157.5 366c.3.5.8 1 1.1 1 .2 0 .4-.5.4-1 0-.6-.5-1-1.1-1-.5 0-.7.4-.4 1zM275.4 328.5c.3 2.3 1.2 2.6 1.3.5.1-1.1-.2-2-.7-2-.4 0-.7.7-.6 1.5zM293.5 356c.3.5.8 1 1.1 1 .2 0 .4-.5.4-1 0-.6-.5-1-1.1-1-.5 0-.7.4-.4 1zM295.9 360.7c-1.3 1.6-1.2 1.7.4.4 1.6-1.3 2.1-2.1 1.3-2.1-.2 0-1 .8-1.7 1.7zM311.4 343.3c.2 2.7 1.5 4.9 2.6 4.2.4-.3 1.1.3 1.4 1.2.5 1.2 1 1.3 1.7.6 1.4-1.4.2-3.6-1.3-2.7-.8.5-.9.1-.5-1.2.7-1.8.6-1.8-.6-.2-.8 1-1.7 1.5-2 1.1-.9-.8 1.2-3.3 2.8-3.3.6 0 1.8 1.1 2.5 2.5.7 1.3 1.7 2.2 2.3 1.8.5-.3.3-.9-.4-1.4-1.2-.7-1.2-.9 0-.9 1.1 0 1.1-.3.1-1.5-.7-.9-1.5-1.3-1.8-1.1-.2.3-1.3.1-2.3-.5-1.4-.7-1.9-.6-1.9.2s-.4.9-1.3 0c-1.1-.9-1.4-.6-1.3 1.2zM407.3 342.8c0 1.2.4 1.9.8 1.6.4-.2.9.2 1.2.8.2.7.7 1 1.1.7.3-.3-.3-1.6-1.3-2.8-1.9-2.2-2-2.2-1.8-.3zM404.5 344c-.3.5-.1 1 .4 1 .6 0 1.1-.5 1.1-1 0-.6-.2-1-.4-1-.3 0-.8.4-1.1 1zM259.6 40.5c-.3.8-.1 1.5.4 1.5.6 0 1-.7 1-1.5s-.2-1.5-.4-1.5-.6.7-1 1.5zM259.5 48.5c0 3 .2 5.5.5 5.5.8 0 .5 8.4-.3 9.7-.5.7-.4 1.3.1 1.3.4 0 .8 2.2.8 4.9-.1 3-.5 4.7-1.1 4.3-.6-.3-.5 0 .1.9.6.8.9 2.7.8 4.4-.2 1.6.1 3.4.7 4.1.7.8.7 1.4 0 1.8-.6.4-.7 1.4-.4 2.2.3.9 0 2-.8 2.5-1 .6-1 .9-.2.9s1.1 1.1.9 3c-.2 1.6.2 3.1.8 3.4.6.2.2.5-.9.5-1.7.1-1.7.3-.5 1.1 2.3 1.5 2.9 1.2 2.5-1-.2-1.1.1-2 .7-2 .7 0 .3-.7-.8-1.5-1.1-.9-1.3-1.3-.4-1 1.3.5 1.5-1.3 1.3-12.7-.3-12.7-.8-22.2-1.7-29.8-.3-1.9-.5-4.5-.5-5.8-.1-1.2-.4-2.2-.8-2.2-.5 0-.8 2.5-.8 5.5zM329.8 65.5c-.3.4-.2 2 .2 3.6.5 1.6.9 3.2.9 3.4.1.3.1.6.2.7 0 .2.3 2.3.5 4.8.9 9.4 1.1 10.6 1.7 12.5.7 2.4 1.9 10.8 2 14.7 0 1.6.6 2.8 1.3 2.8.8 0 1.1-1 .9-2.8-.7-4.9-1.6-9.5-2.1-10.4-.3-.4 0-.8.6-.8.7 0 .8-.6.1-1.8-.5-1-1.2-3.6-1.5-5.8-.6-3.8-.9-5.5-2.2-11.9-.4-1.7-.9-4.5-1.3-6.3-.3-1.9-.9-3.1-1.3-2.7zM110.6 69.8c-.2.4-.1 1.4.3 2.1.6 1 1 .9 1.4-.3.6-1.6-.8-3.2-1.7-1.8zM110 75.5c-.8.9-.8 1.5-.2 1.5 1.2 0 2.6-1.9 1.9-2.6-.2-.2-1 .2-1.7 1.1zM109.6 79.5c-.3.8-.1 1.5.4 1.5.6 0 1-.7 1-1.5s-.2-1.5-.4-1.5-.6.7-1 1.5zM108.9 82.7c0 .5-.2 2.8-.4 5.3-.8 11.8-1.9 19-2.9 19-.6 0-.5.4.3.9s1 1.4.6 2.1c-1.1 1.8-1.2 9-.1 9 .5 0 .4.6-.1 1.2-1.3 1.6-1.3 4.8-.1 4.8.5 0 .6.6.1 1.2-1 1.7-1.2 21.8-.1 21.2 1.2-.8 1 1-.3 2.3-.7.7-.6 1.2.5 1.6 1.1.4 1.3.1.9-1-.5-1.1-.3-1.4.6-.8 1 .6 1.1.3.3-1.1-.8-1.8-.8-9.4 0-17.1.2-1.7.1-3-.3-2.8-.3.3-.6-.9-.5-2.5.1-1.7.3-3 .6-3 .8 0 .5-6.4-.4-7.8-.4-.7-.4-1.2.1-1.2.4 0 .9-3 1.1-6.8.5-10.8.6-11.7 1.7-12.4.6-.5.5-.8-.2-.8s-1.1-.6-.8-1.3c1-3.1 1.3-10.7.4-10.7-.5 0-.9.3-1 .7zM260.5 102c-.3.5.1 1 .9 1 .9 0 1.6-.5 1.6-1 0-.6-.4-1-.9-1-.6 0-1.3.4-1.6 1zM178.8 102.7c.6.2 1 .9.6 1.4-.3.5 0 .9.5.9.6 0 1.1-.7 1.1-1.5s-.8-1.5-1.7-1.4c-1.1 0-1.3.3-.5.6zM260.8 104.7c.7.3 1.6.2 1.9-.1.4-.3-.2-.6-1.3-.5-1.1 0-1.4.3-.6.6zM179.5 109c.2 4.2 1.1 4.6 1.2.5 0-1.9-.3-3.5-.6-3.5-.4 0-.7 1.3-.6 3zM261.2 108c0 1.4.2 1.9.5 1.2.2-.6.2-1.8 0-2.5-.3-.6-.5-.1-.5 1.3zM335.5 109.9c-.3.6 0 1.1.7 1.1.9 0 .9.3-.2 1-1.2.8-1.2 1-.1 1 .8 0 1.1.7.8 2-.3 1 0 2.1.7 2.4.7.3.7.5-.2.5-.8.1-1 .7-.5 1.8.5 1 .8 3.8.8 6.3s.3 4.8.8 5.1c.5.4.4 1.6-.3 2.9-.6 1.2-.9 2.4-.6 2.8.3.3.6 0 .6-.6 0-.7.8-1.2 1.8-1.2.9 0 1.3-.4.7-.8-.5-.4-1-1.4-1-2.2 0-.8.5-1.8 1-2.2.6-.5.5-.8-.2-.8-.8 0-1.3-1.6-1.2-4.3 0-12.4-1.4-18.3-3.6-14.8zM338.7 139.5c-.4.8-.2 1.7.4 2.1.6.4.6 1.2-.3 2.2-1 1.4-1 1.5.2.4.8-.7 1.5-2.3 1.6-3.7.1-2.7-1.1-3.4-1.9-1zM339.6 147.9c-.3.5.2 1.5 1.2 2.2 1.5 1.2 1.6 1.2.5-.2-.7-.9-1-1.9-.6-2.2.3-.4.4-.7 0-.7-.3 0-.8.4-1.1.9zM339 151.9c0 1 1.9 2.5 2.5 2 .1-.2-.3-1-1.1-1.7s-1.4-.8-1.4-.3zM105.5 154c.3.5 1.4 1 2.3 1 1.5 0 1.5-.2.2-1-2-1.3-3.3-1.3-2.5 0zM339.5 155.9c-.3.5-.2 1.2.3 1.5.5.3.9-.1.9-.9 0-1.7-.3-1.9-1.2-.6zM339.5 162.9c-.3.5-.2 1.2.3 1.5.5.3.9-.1.9-.9 0-1.7-.3-1.9-1.2-.6zM106.5 164c-.3.6.1.7.9.4 1.8-.7 2.1-1.4.7-1.4-.6 0-1.3.4-1.6 1zM107.3 179.5c0 .8.4 1.2.9.9.5-.3.6-1 .3-1.5-.9-1.3-1.2-1.1-1.2.6zM104.6 198.7c-.6 1.4-.5 1.5.5.6.7-.7 1-1.5.7-1.8-.3-.3-.9.2-1.2 1.2zM179 201.9c-8.2 2.5-15.7 9.9-19 18.9-6.4 17 2.7 43.9 20 59.5 3.5 3.2 4.6 4.7 3.9 5.8-1.2 1.9-1.1 2.9.2 2.9.5 0 .8-.4.5-.8-.2-.4-.1-1.4.3-2.1.7-1.1 1.6-1.1 4.4-.1 10.8 3.5 22.8-5.9 27.7-21.8 1.5-5 1.9-8.5 1.7-16.5-.4-11.7-3.2-21.1-9.2-30.8-3.2-5.3-3.5-6.1-2.6-9.8.5-2.4.5-4.1 0-4.1s-1 .4-1 1c-.1.5-.3 1.4-.4 2-.1.5-.3 1.7-.4 2.5-.1 1.2-1 .9-3.8-1.4-6.5-5.2-15.4-7.3-22.3-5.2zM181.8 292.5c-.9 2.1-1.4 2.3-2.7 1.2-1.4-1-1.4-1-.3.5.8 1 1 2.3.6 3-1.1 1.8-1.2 4.8-.2 4.2.5-.3.7-1.1.5-1.7-.2-.7.1-1.9.7-2.7 1.5-1.9 3.7-7 3.1-7-.3 0-1.1 1.1-1.7 2.5zM170.6 293.8c-.3.5.1.9.9.9s1.5-.4 1.5-.9c0-.4-.4-.8-.9-.8-.6 0-1.2.4-1.5.8zM175 294.8c0 .5.7.9 1.5.9s1.2-.4.9-.9c-.3-.4-.9-.8-1.5-.8-.5 0-.9.4-.9.8zM186 295.4c0 .2.7.6 1.5 1 .8.3 1.5.1 1.5-.4 0-.6-.7-1-1.5-1s-1.5.2-1.5.4zM191 296.4c.7.7 1.3.7 2 0 .6-.6.3-1-1-1s-1.6.4-1 1zM44.7 304.1c.7.7 1.5 1 1.8.7.3-.3-.2-.9-1.2-1.2-1.4-.6-1.5-.5-.6.5zM97.1 307.7c-1 2.6-1 2.7.4.9.8-1.1 1.5-2.3 1.5-2.8 0-1.5-.7-.8-1.9 1.9zM100 307c-.6 1.1-.7 2-.2 2 .6 0 1.2-.9 1.5-2 .3-1.1.3-2 .1-2-.2 0-.8.9-1.4 2zM103.7 306.7c.3.7.6 1.3.8 1.3.2 0 .5-.6.8-1.3.3-.8-.1-1.4-.8-1.4-.7 0-1.1.6-.8 1.4zM424.6 306.2c.3.5 1 .6 1.5.3 1.3-.9 1.1-1.2-.6-1.2-.8 0-1.2.4-.9.9zM254.9 307.7c-1.3 1.6-1.2 1.7.4.4.9-.7 1.7-1.5 1.7-1.7 0-.8-.8-.3-2.1 1.3zM37 308c-.9.6-1 1-.3 1 .6 0 1.5-.5 1.8-1 .8-1.2.4-1.2-1.5 0z"/><path d="M50 308.1c0 .7-1.5 1-3.9.7-2.2-.2-3.7.1-3.4.5.3.5-.3.7-1.3.3-1.1-.3-2.6-.1-3.4.4-.9.5-1.9.5-2.7-.2-1-.8-1.2-.7-.8.5.5 1.2 0 1.5-2.4 1.3-2.2-.2-2.8.1-2 1 .6.8.1 1.5-2.1 2.4-1.6.7-2.8 1.6-2.5 2 .3.5-.7 1.8-2.2 3-1.6 1.2-2.8 2.5-2.8 2.8 0 .4-.3 1.1-.6 1.7-2.2 3.7-3 12.9-1.7 18.8.6 2.6.5 4.4-.2 5.2-.8 1-.8 1.5.1 2.1.8.4.9.3.5-.4s-.3-1.2.3-1.2 1.7 1.3 2.5 2.9c.9 1.6 2.2 3.1 3.1 3.4.8.4 1.5 1.4 1.5 2.2 0 .9.4 1.4.9 1 1.2-.7 3.3 2.9 2.3 4-.4.5-.1.5.6.1s1-1.1.7-1.5c-.2-.5 1.1-.1 3 .7 1.9.9 3.5 1.9 3.5 2.2 0 .3 3.5.6 7.8.5 12.1-.2 18.5-3.9 25-14.7 2.1-3.5 2.2-3.8.5-3.9-10.7-.4-14.6-.2-15.4.7-.5.7-1.8 1-2.8.7-1-.3-2.2 0-2.5.6-.5.7 0 .9 1.1.5 1.5-.5 1.5-.4.3.4-.8.6-1.8.8-2.2.6-.4-.3-.8 0-.8.6 0 .7-.7.5-1.6-.4-1.8-1.8-2.8-2.1-1.9-.6.8 1.3-4.6.5-5.4-.8-.3-.5-1.4-1.2-2.5-1.5-1-.4-1.6-1.3-1.3-2.2.4-1 .1-1.2-1.1-.8-1.5.6-1.6.5-.2-1.2 1.4-1.7 1.3-1.8-.2-1.2-1 .3-1.8.4-1.8 0 0-.3.8-1.2 1.8-1.9 1.4-1.2 1.4-1.3.1-.8-1 .3-1.9-.2-2.3-1.2-.4-1.2-.2-1.5.9-1.1.8.4 1.7.1 2.1-.5.4-.6.3-.8-.3-.5-.6.4-1.4 0-1.7-.9-.8-2.1-1-1.7 2.9-6 1.9-2.2 3.5-3.3 3.5-2.5 0 1.1.4.9 1.5-.5.8-1 1.5-1.5 1.5-1s.7.3 1.5-.4c1.2-1 1.5-.9 1.5.6 0 1.1.4 1.5.8.9s1.3-1.1 2-1.3c1.8-.3 5.4 1.7 4.7 2.7-.2.5.1.9.8.8 4.7-.1 8.7.4 8.2 1.2-.3.5-.1 1.3.5 1.6.6.4.9.1.8-.7-.4-1.6 7.1-2 9-.5.8.6 1.2.6 1.2-.1 0-.6-.3-1.2-.7-1.4-.5-.2-1.9-2.3-3.2-4.8-1.3-2.5-3.3-5.1-4.3-5.8-1-.7-1.8-2.1-1.8-3 0-1.4-.2-1.4-.9-.3-.7 1.1-1 .9-1.6-.8-.3-1.1-1.1-2.1-1.6-2.1-.6 0-.7.5-.3 1.1.3.6-.4.5-1.7-.2-2.3-1.3-2.9-1.5-5.6-1.8-.7 0-1-.8-.7-1.6.4-.8.3-1.5 0-1.5s-.6.5-.6 1.1zM93 307.9c0 .6.4 1.3 1 1.6.6.3.7-.1.4-.9-.7-1.8-1.4-2.1-1.4-.7zM257.5 308c-.2.3.7.7 2 .8 1.3.1 2.6-.2 2.9-.6.2-.4-.7-.7-2.1-.7-1.4 0-2.6.2-2.8.5zM273 308.4c.4.4 1.6.4 2.6-.2 1.6-.9 1.4-1-.8-.9-1.5.1-2.3.6-1.8 1.1zM403.5 308c-.3.5-.1 1 .4 1 .6 0 1.1-.5 1.1-1 0-.6-.2-1-.4-1-.3 0-.8.4-1.1 1z"/><path d="M65.5 315.1c-.4.6-.5 1.2-.2 1.5.2.3.7-.2 1-1.1.7-1.7.1-2-.8-.4zM81.7 315.7c.3.7.6 1.3.8 1.3.1 0 .7-.6 1.3-1.3.8-1 .6-1.3-.7-1.3-1.1 0-1.7.6-1.4 1.3zM392 315.1c0 .5-.4.8-.9.4-.5-.3-1.2-.1-1.5.4-.4.5.2.8 1.1.7 1.5-.3 3.3-2.6 1.9-2.6-.3 0-.6.5-.6 1.1zM22.8 316.2c1.1 1.4 1 1.8-.5 2.7-1 .6-1.3 1.1-.7 1.1.6 0 1.7-.6 2.3-1.4.9-1 .7-1.7-.6-2.7-1.6-1.3-1.7-1.2-.5.3zM70.6 318.2c.3.5 1 .6 1.5.3 1.3-.9 1.1-1.2-.6-1.2-.8 0-1.2.4-.9.9zM78.5 319.2c.4 1.1.2 1.8-.4 1.8-.6 0-1.1.5-1.1 1.2 0 .8.6.6 1.7-.5 1.4-1.4 1.5-1.9.4-2.9-1-1.1-1.1-1-.6.4zM385.7 319.3c.4.6.8 1.9.8 2.7 0 1.8 2.7 2 3.1.2.1-.7 0-.8-.3-.2-.9 1.8-2.5 1.1-1.8-.9.3-1.2 0-2.1-1-2.5-1.1-.4-1.4-.2-.8.7zM76.5 325c.6.9-.8 1.4-2.8 1.1-.5-.1-.6.3-.2.9.4.7 1.2.7 2.6 0 1.7-.9 1.9-3 .3-3-.3 0-.2.4.1 1zM49.3 326.5c0 .8.4 1.2.9.9.5-.3.6-1 .3-1.5-.9-1.3-1.2-1.1-1.2.6zM427.5 327c1 1.1 2 2 2.3 2 .3 0-.3-.9-1.3-2s-2-2-2.3-2c-.3 0 .3.9 1.3 2zM16.5 328.1c-.4.6-.5 1.2-.2 1.5.2.3.7-.2 1-1.1.7-1.7.1-2-.8-.4zM45.5 328c-.3.5-.1 1 .4 1 .6 0 1.1-.5 1.1-1 0-.6-.2-1-.4-1-.3 0-.8.4-1.1 1zM425 328c0 .5.5 1 1.1 1 .5 0 .7-.5.4-1-.3-.6-.8-1-1.1-1-.2 0-.4.4-.4 1zM33.5 332c-.3.5-.1 1 .4 1 .6 0 1.1-.5 1.1-1 0-.6-.2-1-.4-1-.3 0-.8.4-1.1 1zM69 333.5c0 .8 2.9 1.2 3.9.5.9-.5.4-.8-1.3-.8-1.4 0-2.6.2-2.6.3zM71.9 336.7c-1.3 1.7-1.3 1.7.6.3 1.1-.8 2.2-1.6 2.4-1.7.2-.2 0-.3-.6-.3s-1.7.8-2.4 1.7zM73.5 338.4c-.3.9-.7 2.3-1 3.1-.2.8-.2 1.5.1 1.5.7 0 2.5-5.2 2-5.8-.3-.3-.8.3-1.1 1.2zM385.5 341c-.3.6.1.7.9.4 1.8-.7 2.1-1.4.7-1.4-.6 0-1.3.4-1.6 1zM69.5 343.1c-.4.6-.5 1.2-.2 1.5.2.3.7-.2 1-1.1.7-1.7.1-2-.8-.4zM369.5 347c-1.6 1.6-2.3 3-1.7 3 .7 0 1.2-.5 1.2-1.1 0-.8.4-.8 1.4 0 1.2 1 1.7.8 2.7-1.1.8-1.4 1.4-1.8 1.7-1 .2.6.8 1.2 1.4 1.2.6 0 .5-.7-.3-1.6-1.2-1.5-1.5-1.4-3 .5-.9 1.1-1.9 1.7-2.3 1.4-.3-.4.1-1.5 1.1-2.5 2.7-3 .9-2-2.2 1.2zM41.6 345.9c.8.8 4.3.8 3.8 0-.2-.4-1.3-.7-2.4-.6-1 .1-1.7.3-1.4.6zM47.3 347.1c-.2 2.3.3 2.5 1 .4.4-.8.3-1.6-.1-1.9-.4-.3-.9.4-.9 1.5zM53 346.1c0 .5.5.7 1 .4.6-.3 1-.8 1-1.1 0-.2-.4-.4-1-.4-.5 0-1 .5-1 1.1zM385.7 347.1c.7.7 1.5 1 1.8.7.3-.3-.2-.9-1.2-1.2-1.4-.6-1.5-.5-.6.5zM74.5 349.8c-.3.9-.3 1.3.1.9s1.8 0 3.1.8c3 2 2.9 1.4-.1-1.2-2.2-1.9-2.5-2-3.1-.5zM386.7 350.1c.7.7 1.5 1 1.8.7.3-.3-.2-.9-1.2-1.2-1.4-.6-1.5-.5-.6.5zM73.6 354.7c-.6 1.4-.5 1.5.5.6.7-.7 1-1.5.7-1.8-.3-.3-.9.2-1.2 1.2zM79 356.4c0 .2.8 1 1.8 1.7 1.5 1.3 1.6 1.2.3-.4s-2.1-2.1-2.1-1.3zM337.7 359.1c.4 1.3.8 1.8 1.1 1 .2-.7-.1-1.8-.6-2.3-.8-.8-.9-.4-.5 1.3zM122.6 359.7c-.6 1.4-.5 1.5.5.6.7-.7 1-1.5.7-1.8-.3-.3-.9.2-1.2 1.2zM32 364c-.9.6-1 1-.3 1 .6 0 1.5-.5 1.8-1 .8-1.2.4-1.2-1.5 0zM90.5 366.1c-.3.4.2.6 1 .5 2.1-.3 2.8-1.3 1-1.3-.9 0-1.8.4-2 .8zM411.5 366.9c-.3.5-.2 1.2.3 1.5.5.3.9-.1.9-.9 0-1.7-.3-1.9-1.2-.6z"/></svg>